<svg width="91" height="24" viewBox="0 0 91 24" fill="none" xmlns="http://www.w3.org/2000/svg">
<path d="M0.448864 23.9091H4.07955V16.9034H4.19034C4.69318 17.9943 5.79261 19.2131 7.90625 19.2131C10.8892 19.2131 13.2159 16.8523 13.2159 12.4716C13.2159 7.97159 10.7869 5.73864 7.91477 5.73864C5.72443 5.73864 4.67614 7.04261 4.19034 8.10795H4.02841V5.90909H0.448864V23.9091ZM4.00284 12.4545C4.00284 10.1193 4.99148 8.62784 6.75568 8.62784C8.55398 8.62784 9.50852 10.1875 9.50852 12.4545C9.50852 14.7386 8.53693 16.3239 6.75568 16.3239C5.00852 16.3239 4.00284 14.7898 4.00284 12.4545ZM15.6364 19H19.267V5.90909H15.6364V19ZM17.4602 4.22159C18.5426 4.22159 19.429 3.39489 19.429 2.38068C19.429 1.375 18.5426 0.548295 17.4602 0.548295C16.3864 0.548295 15.5 1.375 15.5 2.38068C15.5 3.39489 16.3864 4.22159 17.4602 4.22159ZM28.0902 19.2557C31.576 19.2557 33.7663 17.2102 33.9368 14.2017H30.5107C30.2976 15.5994 29.3771 16.3835 28.1328 16.3835C26.4368 16.3835 25.3374 14.9602 25.3374 12.4545C25.3374 9.98295 26.4453 8.56818 28.1328 8.56818C29.4624 8.56818 30.3146 9.44602 30.5107 10.75H33.9368C33.7834 7.72443 31.4908 5.73864 28.0732 5.73864C24.1016 5.73864 21.647 8.49148 21.647 12.5057C21.647 16.4858 24.0589 19.2557 28.0902 19.2557ZM40.5057 19.3068C42.7898 19.3068 43.983 18.0795 44.392 17.2273H44.4943V19H46.5057V10.375C46.5057 6.21591 43.3352 5.73864 41.6648 5.73864C39.6875 5.73864 37.4375 6.42045 36.4148 8.80682L38.3239 9.48864C38.767 8.53409 39.8153 7.51136 41.733 7.51136C43.5824 7.51136 44.4943 8.49148 44.4943 10.1705V10.2386C44.4943 11.2102 43.5057 11.125 41.1193 11.4318C38.6903 11.7472 36.0398 12.2841 36.0398 15.2841C36.0398 17.8409 38.017 19.3068 40.5057 19.3068ZM40.8125 17.5C39.2102 17.5 38.0511 16.7841 38.0511 15.3864C38.0511 13.8523 39.4489 13.375 41.017 13.1705C41.8693 13.0682 44.1534 12.8295 44.4943 12.4205V14.2614C44.4943 15.8977 43.1989 17.5 40.8125 17.5Z" fill="#6C6C6C"/>
<path d="M54.6087 19.2131C56.7223 19.2131 57.8217 17.9943 58.3246 16.9034H58.478V19H62.0575V1.54545H58.4354V8.10795H58.3246C57.8388 7.04261 56.7905 5.73864 54.6001 5.73864C51.728 5.73864 49.299 7.97159 49.299 12.4716C49.299 16.8523 51.6257 19.2131 54.6087 19.2131ZM55.7592 16.3239C53.978 16.3239 53.0064 14.7386 53.0064 12.4545C53.0064 10.1875 53.9609 8.62784 55.7592 8.62784C57.5234 8.62784 58.5121 10.1193 58.5121 12.4545C58.5121 14.7898 57.5064 16.3239 55.7592 16.3239ZM68.7756 19.2472C70.7102 19.2472 71.9631 18.4034 72.6023 17.1847H72.7045V19H76.1477V10.1705C76.1477 7.05114 73.5057 5.73864 70.5909 5.73864C67.4545 5.73864 65.392 7.23864 64.8892 9.625L68.2472 9.89773C68.4943 9.02841 69.2699 8.3892 70.5739 8.3892C71.8097 8.3892 72.517 9.01136 72.517 10.0852V10.1364C72.517 10.9801 71.6222 11.0909 69.3466 11.3125C66.7557 11.5511 64.429 12.4205 64.429 15.3438C64.429 17.9347 66.2784 19.2472 68.7756 19.2472ZM69.8153 16.7415C68.6989 16.7415 67.8977 16.2216 67.8977 15.2244C67.8977 14.2017 68.7415 13.6989 70.0199 13.5199C70.8125 13.4091 72.108 13.2216 72.5426 12.9318V14.321C72.5426 15.6932 71.4091 16.7415 69.8153 16.7415ZM80.7372 23.9091C83.4389 23.9091 84.8707 22.5284 85.6122 20.4148L90.7003 5.92614L86.8565 5.90909L84.1207 15.5227H83.9844L81.2741 5.90909H77.456L82.152 19.375L81.9389 19.929C81.4616 21.1562 80.5497 21.2159 79.2713 20.8239L78.4531 23.5341C78.973 23.7557 79.8168 23.9091 80.7372 23.9091Z" fill="#00E3BA"/>
</svg>
